<svg width="657" height="500" viewBox="0 0 657 500" fill="none" xmlns="http://www.w3.org/2000/svg">
<g clip-path="url(#clip0_373_26)">
<path d="M282.59 280.543C281.225 280.543 280.036 280.275 279.114 279.762C274.192 277.034 260.43 272.208 257.316 271.124L256.197 270.156C256.488 266.973 255.998 262.124 255.264 255.712C254.902 252.564 254.564 249.592 254.564 248.111C254.564 245.908 255.31 242.667 256.103 239.216C257.001 235.311 258.028 230.893 258.343 226.486C258.483 224.516 258.483 222.954 258.308 221.695C260.769 220.412 263.078 219.188 264.722 217.953L265.2 217.603C266.717 216.472 268.443 215.19 269.691 213.126C270.624 211.587 271.242 208.86 272.07 204.884C272.303 203.753 272.525 202.681 272.7 202.028C274.601 194.8 276.98 191.606 281.727 185.253L282.123 184.728C282.601 184.087 283.126 183.621 283.686 183.119C284.736 182.187 286.03 181.021 286.298 179.016C286.497 177.512 286.31 176.031 286.007 173.572C285.925 172.954 285.844 172.266 285.75 171.497C285.225 166.892 285.214 164.304 285.377 163.488C285.494 162.87 285.832 162.438 286.298 162.019C287.791 161.506 293.436 160.713 298.02 160.072C299.711 159.839 301.472 159.594 303.244 159.326C309.904 158.358 315.28 157.566 318.733 157.029C318.639 158.102 318.441 159.023 318.126 159.466C317.916 159.746 317.613 160.13 317.24 160.597C313.799 164.875 305.752 174.889 310.919 184.262L312.097 186.395C315.001 191.618 322.628 205.374 322.301 208.86C320.389 211.657 316.295 219.247 317.718 224.761C318.278 226.929 319.596 228.573 321.543 229.517L322.22 229.843C327.328 232.397 333.066 236.034 334.582 237.677C334.128 240.231 331.177 247.936 330.022 249.37C329.089 250.256 328.506 251.527 327.713 253.276C326.092 256.854 323.643 262.252 317.648 265.435C317.356 265.586 316.983 265.831 316.598 266.064C316.4 266.192 316.213 266.321 316.05 266.402C306.825 271.217 295.745 276.195 292.141 277.663C291.722 277.838 291.278 278.025 290.8 278.223C288.631 279.144 285.937 280.286 283.336 280.485C283.079 280.508 282.823 280.52 282.566 280.52L282.59 280.543Z" fill="#E5B570"/>
<path d="M284.245 353.148C285.155 351.469 286.147 349.126 287.161 345.815C288.048 342.936 289.645 331.721 289.132 328.096C288.934 326.778 288.339 324.995 287.511 322.523C286.252 318.769 284.537 313.64 284.409 310.108C284.222 304.687 287.884 292.073 289.086 289.275C289.575 288.145 289.727 286.99 289.54 285.883C290.987 285.393 292.304 284.834 293.424 284.356C293.844 284.181 294.252 284.006 294.625 283.855C298.124 282.432 307.711 278.142 316.668 273.596C318.744 276.335 320.645 278.9 320.96 279.401C321.065 279.588 321.321 280.089 321.66 280.765C325.648 288.623 327.736 291.84 329.637 293.052C331.258 294.09 333.509 294.323 336.122 294.591C338.011 294.789 341.172 295.116 342.046 295.862C342.933 296.62 343.726 297.844 344.484 299.021C345.86 301.155 347.411 303.556 350.257 304.022C350.91 304.127 351.773 304.197 352.881 304.267C358.269 304.652 361.36 305.27 362.06 306.121C363.844 310.143 364.637 313.99 364.474 315.214C363.261 316.589 362.701 318.466 362.899 320.541C363.179 323.444 364.952 326.312 367.518 328.026C367.821 328.235 368.136 328.41 368.451 328.562C366.725 330.987 364.194 334.053 361.36 335.918C357.336 338.553 351.68 339.52 348.298 340.103C347.073 340.313 346.198 340.464 345.522 340.663C342.933 341.444 341.37 343.67 340.437 345.011C340.402 345.069 340.355 345.128 340.32 345.174C339.527 345.314 338.233 345.687 337.381 347.016C335.807 347.249 333.847 347.471 332.436 347.471C332.028 347.471 331.771 347.447 331.631 347.436C329.322 346.025 326.628 344.638 323.782 344.638C318.021 344.638 310.93 345.419 309.88 349.103C309.577 350.07 307.349 353.894 304.399 355.596C303.034 356.389 302.276 356.704 301.553 357.007C300.235 357.566 299.221 358.044 297.319 359.467L284.222 353.16L284.245 353.148Z" fill="#EDBA84"/>
<path d="M331.386 387.992C327.864 387.06 322.476 385.731 317.904 385.054C313.542 384.413 308.049 384.273 304.2 384.273C303.244 384.273 302.404 384.273 301.728 384.297C301.588 384.145 301.075 383.597 301.075 383.597C300.772 383.271 300.503 382.968 300.258 382.711C298.311 380.543 297.448 379.878 294.695 379.401C294.73 379.039 294.789 378.619 294.824 378.34C294.859 378.072 294.894 377.803 294.929 377.57C294.975 377.151 295.267 376.218 295.523 375.39C296.095 373.537 296.806 371.217 296.806 368.955C296.806 368.419 296.853 368.256 296.865 368.256C297.005 368.046 297.914 367.358 298.719 366.74L300.025 365.738C300.188 365.609 300.352 365.481 300.527 365.341C302.509 363.779 303.116 363.523 304.131 363.103C304.959 362.753 305.997 362.322 307.746 361.308C311.746 358.988 314.615 354.779 315.805 352.156C317.554 351.667 321.765 351.247 323.817 351.247C325.275 351.247 327.596 352.681 328.471 353.217C329.404 353.8 330.64 354.068 332.483 354.068C334.197 354.068 336.32 353.835 337.988 353.59C338.804 355.957 339.924 359.442 339.714 361.378C339.562 362.8 339.62 364.84 339.69 367.207C339.772 369.888 339.935 375.402 339.294 376.859L339.096 377.057C338.594 377.5 338.116 377.78 337.649 378.06C336.658 378.643 334.046 380.217 334.874 383.562C334.967 383.935 335.107 384.297 335.27 384.658C334.944 384.891 334.605 385.136 334.279 385.393C333.276 386.185 332.25 386.99 331.41 387.992H331.386Z" fill="#CE8D48"/>
<path d="M335.574 279.587C332.133 279.587 327.981 276.778 326.313 275.402C325.567 274.318 323.969 272.184 322.523 270.261C329.264 265.959 332.156 259.559 333.778 256.003C334.104 255.269 334.512 254.371 334.722 254.057C336.868 251.888 340.04 243.763 340.997 239.181C342.606 238.412 345.65 237.013 350.665 234.926C354.759 233.236 357.791 232.408 359.949 232.408C361.582 232.408 362.363 232.886 362.923 233.352C363.226 233.621 363.541 233.889 363.844 234.169C366.293 236.36 369.641 239.368 375.985 239.368C376.615 239.368 377.268 239.333 377.933 239.275L378.259 239.251C380.289 239.076 382.213 238.902 383.939 238.902C387.811 238.902 389.747 239.741 391.088 242.003C392.161 243.809 392.873 245.29 393.514 246.584C394.797 249.219 395.905 251.504 398.693 253.089C399.229 253.392 399.742 253.73 400.255 254.068C401.795 255.071 403.509 256.178 405.585 256.54C405.854 259.058 406.262 262.695 406.74 265.959C407.032 267.953 406.985 270.82 406.927 273.851C406.927 274.131 406.927 274.423 406.915 274.714C406.507 274.691 406.308 274.656 406.273 274.644C405.27 274.399 395.497 272.126 392.336 271.881C392.138 271.87 391.952 271.858 391.753 271.858C390.19 271.858 388.324 272.289 386.155 272.791C383.823 273.327 381.187 273.945 379.052 273.945C378.901 273.945 378.761 273.945 378.609 273.945C375.799 273.816 374.014 271.613 371.81 268.512L371.67 268.326C370.795 267.102 369.057 265.644 365.722 265.644C361.383 265.644 355.389 268.232 349.662 272.557L348.531 273.42C342.758 277.792 341.72 278.584 337.976 279.296L336.483 279.54C336.203 279.587 335.9 279.61 335.597 279.61L335.574 279.587Z" fill="#FCC39C"/>
<path d="M101.746 439.124C101.361 438.564 100.662 437.27 99.4953 434.507C99.332 434.111 99.1688 433.715 99.0171 433.318C98.0608 430.858 96.7429 427.501 93.1508 427.501C92.8942 427.501 92.6259 427.524 92.346 427.571L91.1681 427.757L87.8792 431.511C86.4097 433.19 85.2667 435.452 84.6136 437.34C84.0654 437.317 83.4356 437.293 82.7592 437.258C81.9311 437.212 81.0215 437.177 80.0768 437.142C76.0531 437.014 71.213 436.524 67.7609 435.895C63.329 435.09 60.9148 434.018 57.241 432.397C55.1184 431.453 52.7042 430.392 49.4036 429.145C46.1614 427.921 43.0357 426.778 40.225 425.741C35.8631 424.144 31.3729 422.488 29.8684 421.789C29.6235 421.287 29.332 420.448 29.3436 419.912C29.3436 419.527 29.5769 418.944 29.8568 418.221C30.195 417.347 30.6265 416.251 30.9064 414.876C31.0347 414.234 31.1397 413.57 31.2447 412.905C31.5012 411.215 31.7112 410.061 32.2593 409.198L41.2747 408.417L44.1904 408.172C50.0567 407.683 52.7275 407.461 54.8618 406.494C58.3023 404.932 58.7105 402.145 59.1071 399.452L59.1537 399.114C59.2004 398.788 59.282 398.45 59.352 398.1C59.7485 396.27 60.3433 393.507 58.6639 390.896C57.6492 389.287 56.273 388.925 55.6782 388.774H55.6199C55.1767 388.413 54.337 387.445 53.1124 385.894L52.9958 385.743C52.1444 384.67 51.6429 383.015 51.0014 380.905C50.5699 379.471 50.0684 377.839 49.3686 376.067C47.351 370.996 45.9864 367.767 44.1087 365.843C41.6479 363.325 39.152 363.197 34.5919 363.174C31.4079 363.15 23.4073 360.935 17.6109 357.345C10.065 352.682 8.51388 351.504 4.26862 342.201C-1.06128 330.497 -0.839682 330.369 1.84276 328.935C3.66215 327.967 7.83743 326.988 13.0624 326.988C17.6109 326.988 21.5062 327.769 23.4889 329.075L32.5509 334.764L33.9504 334.391C38.324 333.213 42.4759 331.966 45.9748 330.905C48.6922 330.077 50.9431 329.693 52.9141 329.354C57.2177 328.608 60.9381 327.967 64.297 323.374C65.5799 321.602 67.2594 319.515 68.8921 318.956C69.3353 318.804 69.5569 318.781 69.7319 318.781C70.0001 318.781 70.385 318.839 70.8748 318.898C71.9128 319.037 73.324 319.247 75.5983 319.247C79.0738 319.247 86.398 319.375 89.2904 319.865C90.515 320.075 90.7249 320.25 91.0981 320.576C91.518 320.938 92.1478 321.497 93.1741 321.929C96.2064 323.188 100.638 323.805 106.738 323.805H109.409C114.762 323.805 119.392 323.805 120.932 319.131C122.763 313.57 120.535 306.983 115.403 302.74C114.645 302.11 114.004 301.656 113.479 301.294C112.208 300.408 112.044 300.292 112.044 293.099C112.044 291.653 112.056 290.394 112.079 289.264C112.184 281.22 111.986 278.865 106.33 272.745C103.227 269.387 100.93 266.706 99.7286 265.202C102.633 261.67 111.8 253.031 114.645 251.574C115.38 251.213 118.704 250.711 123.801 250.711C126.483 250.711 131.405 250.455 134.145 248.718C135.767 247.692 136.42 246.34 137.049 245.034C137.493 244.113 137.994 243.076 139.032 241.63C139.65 240.767 140.187 239.998 140.677 239.299C141.948 237.48 142.869 236.163 143.662 235.486C143.907 235.277 144.105 235.078 144.304 234.892C144.35 234.845 144.397 234.799 144.444 234.752C144.595 234.729 144.875 234.717 145.365 234.717C145.855 234.717 146.356 234.74 146.846 234.752C147.371 234.775 147.873 234.787 148.304 234.787C150.357 234.787 152.561 235.358 153.459 235.755C153.482 235.906 153.506 236.081 153.529 236.221C153.657 237.084 153.832 238.273 154.415 239.66C154.555 239.998 154.649 240.313 154.742 240.674C154.975 241.514 155.29 242.656 156.293 243.798C157.611 245.314 159.407 246.223 161.063 246.223C162.486 246.223 164.2 245.489 168.947 243.379C170.487 242.691 172.189 241.933 173.962 241.187C175.152 240.686 176.271 240.185 177.321 239.718C180.307 238.401 182.873 237.258 184.482 237.049C184.599 237.037 184.727 237.025 184.844 237.025C185.765 237.025 187.095 237.375 188.622 237.771C190.29 238.203 192.378 238.739 194.874 239.1C198.407 239.602 200.868 239.811 203.119 239.811C208.041 239.811 212.053 238.832 220.835 236.687L223.786 235.964C230.935 234.227 235.658 233.085 242.703 230.019C245.537 228.783 248.487 227.116 251.333 225.507C251.485 225.426 251.636 225.333 251.788 225.251C251.776 225.496 251.765 225.764 251.741 226.044C251.461 229.937 250.54 233.913 249.654 237.76C248.732 241.747 247.939 245.186 247.939 248.135C247.939 250 248.278 253.008 248.674 256.494C249.106 260.247 249.864 266.892 249.619 269.515C245.269 270.868 235.938 274.528 232.848 276.067C231.985 276.498 230.503 277.128 228.941 277.792C221.232 281.08 217.464 282.898 216.205 285.417C214.7 288.436 213.826 291.642 213.522 299.895C213.382 303.859 212.566 309.455 211.843 314.386C210.968 320.331 210.455 324.085 210.618 326.207C210.863 329.459 209.545 339.695 208.916 343.146C208.776 343.915 208.624 345.162 208.426 346.736C207.994 350.245 206.665 360.935 205.055 362.789C204.274 363.64 203.259 364.619 202.186 365.657C198.524 369.189 195.62 371.975 196.075 375.088L196.18 375.787C196.063 375.846 195.923 375.904 195.772 375.962C192.296 377.408 189.602 379.308 187.759 381.604C187.036 382.397 181.986 386.431 177.216 390.115C176.376 390.115 175.7 390.406 175.268 390.628C173.286 391.607 171.676 393.624 168.749 397.272C168.177 397.995 167.548 398.776 166.86 399.616C165.985 400.688 165.099 401.726 164.282 402.693C160.772 406.82 158.649 409.315 158.976 411.996C159.255 414.281 158.789 418.979 157.658 422.337C156.596 425.507 154.917 427.594 154.299 427.967C153.879 428.177 152.164 428.643 151.022 428.947C149.995 429.226 148.957 429.506 148.094 429.774C147.08 430.089 146.438 430.357 145.913 430.579C145.237 430.858 144.817 431.033 143.639 431.266C142.193 431.558 140.642 431.709 139.172 431.709C137.388 431.709 136.128 431.476 135.545 431.301C134.962 429.949 133.959 425.997 133.271 420.821L133.247 420.646L131.031 411.67L131.44 408.849L134.647 400.968C135.078 399.907 135.51 398.846 135.942 397.809C138.636 391.245 140.047 387.713 140.047 385.51C140.047 378.585 135.825 378.049 129.865 378.049H120.652L115.882 389.264C114.61 392.236 113.211 395.862 112.499 400.152C112.056 402.798 111.905 405.573 111.73 408.499C111.648 409.863 111.566 411.297 111.45 412.777C111.321 414.409 111.158 415.913 111.018 417.324C110.808 419.352 110.61 421.276 110.552 423.013C110.482 425.391 110.155 427.244 109.677 429.285C109.584 429.704 109.49 430.147 109.397 430.59C109.152 431.826 108.872 433.225 108.371 433.784C107.543 434.705 107.193 435.207 106.913 435.615C106.715 435.906 106.61 436.058 106.26 436.419C105.047 437.713 102.878 438.786 101.723 439.1L101.746 439.124Z" fill="#FFE1A6"/>
<path d="M406.996 250.093C406.227 250.093 405.072 249.347 403.859 248.566C403.241 248.17 402.599 247.75 401.923 247.377C400.978 246.841 400.57 246.072 399.427 243.728C398.774 242.388 397.958 240.709 396.745 238.669C393.386 232.992 387.811 232.339 383.916 232.339C381.91 232.339 379.834 232.525 377.653 232.712L377.338 232.735C376.86 232.782 376.405 232.793 375.973 232.793C372.183 232.793 370.457 231.255 368.276 229.296C367.914 228.981 367.564 228.667 367.215 228.363C365.22 226.65 362.841 225.822 359.949 225.822C356.858 225.822 353.103 226.79 348.123 228.853C343.772 230.66 340.833 231.977 338.991 232.84C335.527 229.319 328.902 225.752 324.47 223.595C324.354 223.537 324.249 223.491 324.167 223.141C323.549 220.704 325.975 215.179 327.911 212.451C330.908 208.231 327.235 200 317.869 183.143L316.738 181.103C313.706 175.612 319.817 168.011 322.429 164.759C322.896 164.176 323.281 163.698 323.526 163.348C325.194 161.028 325.485 157.648 325.45 155.293C327.141 154.395 329.171 152.915 330.652 150.676C333.101 146.969 334.454 145.081 336.215 142.901C339.947 138.272 343.457 135.451 344.484 134.822C345.23 134.647 347.528 134.565 349.394 134.507C351.925 134.425 355.062 134.321 358.386 133.971C359.972 133.808 361.348 133.726 362.666 133.644C365.792 133.446 368.486 133.283 371.728 132.152C374.422 131.208 377.21 129.809 380.429 128.189C382.365 127.221 384.545 126.113 387.041 124.948C396.896 120.343 403.602 116.659 407.206 114.689L407.405 114.584C410.449 117.044 414.81 120.436 418.379 122.686C419.219 123.222 420.07 123.724 420.887 124.225C425.155 126.813 427.779 128.515 427.919 130.87C428.234 136.162 427.126 144.603 425.237 147.54C421.015 154.104 418.881 159.408 418.881 163.313C418.881 164.048 418.752 165.062 418.624 166.134C418.123 170.203 417.201 177.757 424.257 179.622C426.671 180.252 429.459 180.45 431.92 180.613C433.716 180.742 436.352 180.916 437.366 181.301C437.553 181.849 437.739 182.479 437.926 183.131C438.323 184.507 438.766 186.058 439.512 187.538L438.206 188.191L442.719 191.385C443.501 191.933 444.329 192.924 445.285 194.078C446.043 194.999 446.918 196.048 447.991 197.132C447.758 197.354 447.571 197.505 447.431 197.575C445.285 198.531 444.364 200.991 443.396 203.579C443.081 204.418 442.579 205.759 442.23 206.342C440.049 207.426 438.008 210.749 433.891 219.62C433.681 220.063 433.518 220.425 433.389 220.693C432.001 221.975 425.622 225.262 423.593 225.554C418.496 226.277 417.423 233.563 417.05 240.604C416.886 243.6 416.805 243.903 414.542 245.046C412.338 246.153 411.008 247.377 409.947 248.356C408.956 249.266 408.443 249.72 407.556 250.012C407.381 250.07 407.218 250.105 407.055 250.105L406.996 250.093Z" fill="#CE8D48"/>
<path d="M455.794 336.885C454.487 336.885 453.951 336.768 453.893 336.757C453.006 336.512 450.849 334.285 450.044 333.446C448.714 332.047 446.872 330.135 443.769 329.657C442.65 329.482 441.367 329.412 439.594 329.412C438.579 329.412 437.413 329.436 436.2 329.471C435.757 327.885 435.255 325.775 435.162 323.852C435.011 320.669 433.914 317.638 432.946 314.968C432.456 313.616 431.99 312.334 431.803 311.413C431.232 308.522 428.316 305.77 423.593 301.574C421.937 300.105 420.385 298.718 419.511 297.727C418.963 297.109 418.344 296.153 417.82 295.139C417.027 293.565 416.432 291.711 415.744 289.566C415.335 288.284 414.892 286.908 414.356 285.404C413.609 283.306 413.493 280.543 413.481 277.85C413.481 276.579 413.504 275.274 413.528 273.991C413.586 270.669 413.644 267.533 413.271 265.003C412.758 261.518 412.315 257.507 412.07 255.071C412.991 254.465 413.714 253.8 414.391 253.171C415.3 252.331 416.082 251.597 417.446 250.921C422.788 248.251 423.383 244.952 423.593 240.93C423.919 234.717 424.747 232.595 425.097 231.954C428.619 231.103 437.588 226.929 439.116 223.91C439.256 223.63 439.501 223.105 439.827 222.406C443.093 215.388 444.597 212.952 445.285 212.206C447.536 211.203 448.539 208.51 449.519 205.91C449.811 205.129 450.277 203.905 450.592 203.346C451.537 202.821 452.4 202.063 453.134 201.282C453.216 201.329 453.298 201.375 453.379 201.434C456.213 203.136 459.083 204.255 461.392 205.153C462.826 205.712 464.774 206.47 465.322 206.936C465.847 207.927 466.78 209.163 468.051 210.842C469.917 213.301 473.381 217.894 473.661 220.016C474.023 222.697 475.049 224.306 475.865 225.589C476.647 226.813 477.125 227.559 477.125 229.482C477.125 234.553 474.501 245.64 473.544 247.26C473.288 247.668 472.366 248.379 471.69 248.904C469.964 250.245 466.383 253.031 468.518 256.761C470.174 259.652 475.142 263.861 480.169 264.246C480.379 264.257 480.6 264.269 480.845 264.269C482.968 264.269 486 263.581 489.207 262.858C491.692 262.299 494.491 261.669 495.972 261.611C497.115 262.87 498.783 265.551 499.447 267.533C499.762 268.477 500.229 269.958 500.742 271.567C501.663 274.458 502.69 277.734 503.284 279.307C503.424 279.692 503.553 280.088 503.669 280.462C504.241 282.233 505.302 285.533 508.684 285.533C509.536 285.533 510.387 285.288 511.227 284.81C513.221 283.667 515.146 281.044 517.443 277.734C517.921 277.057 518.306 276.475 518.586 276.136C519.309 275.32 522.272 273.653 523.449 273.525C525.479 274.248 531.438 278.048 532.243 279.82C532.616 280.648 532.943 282.467 533.235 284.075C533.829 287.363 534.436 290.732 536.325 292.621C535.614 292.947 534.879 293.262 533.993 293.553C532.383 294.078 530.54 294.497 528.768 294.905C526.902 295.325 525.129 295.733 523.776 296.234C520.79 297.365 519.379 299.079 518.773 299.813C518.388 300.28 517.42 301.445 516.755 305.118C516.382 307.169 516.37 309.326 516.37 311.937V312.136L517.117 318.209C517.117 318.932 516.883 319.41 516.312 319.935C515.367 320.774 513.839 321.485 512.207 322.254L512.008 322.348C510.236 323.187 509.139 323.479 508.276 323.723C507.74 323.863 507.203 324.015 506.632 324.248C505.594 324.411 504.637 324.889 502.981 326.02C500.485 327.722 495.424 331.651 494.176 332.711C494.176 332.711 493.22 333.527 492.986 333.726C492.018 332.921 490.572 331.744 488.414 330.427C484.694 328.153 483.19 327.547 478.909 327.314C478.443 327.291 477.988 327.279 477.545 327.279C473.393 327.279 470.337 328.48 467.9 331.068C467.293 331.709 466.78 332.362 466.325 332.933C465.264 334.274 464.564 335.16 462.955 335.812C461.345 336.465 458.383 336.908 455.759 336.908L455.794 336.885Z" fill="#EDBA84"/>
<path d="M300.749 420.133C300.375 419.224 299.979 418.279 299.594 417.428C298.486 415.039 296.375 412.276 293.926 409.082C293.238 408.184 292.538 407.263 291.827 406.319C291.173 405.448 291.111 404.504 291.64 403.486C292.06 402.67 292.585 401.656 292.97 400.373L293.063 400.035C293.56 398.333 294.944 396.709 297.215 395.162L298.253 394.463C299.874 393.367 301.53 392.259 302.521 390.884C303 390.884 303.524 390.884 304.107 390.884C307.758 390.884 312.948 391 316.937 391.595C321.112 392.201 326.22 393.46 329.614 394.358C329.661 395.372 329.777 396.538 329.906 397.96C330.139 400.466 330.5 403.101 331.83 405.759C331.317 406.528 330.664 407.449 330.011 408.172C328.623 409.734 327.526 412.392 326.139 415.971C325.835 416.741 325.544 417.487 325.31 418.058C323.129 418.792 316.213 419.608 309.951 419.608C307.968 419.608 306.942 419.515 306.51 419.457L304.947 419.259L304.831 419.364C303.233 419.364 301.88 419.69 300.749 420.145V420.133Z" fill="#FFD257"/>
<path d="M417.213 413.896C415.207 413.896 412.175 412.578 410.204 408.848C409.154 406.866 407.965 404.616 405.352 404.616C404.804 404.616 404.373 404.733 404.116 404.791C404.116 404.791 404.104 404.791 404.093 404.791C403.964 404.791 403.836 404.791 403.708 404.791C401.06 404.791 400.011 406.4 399.253 407.565C399.019 407.927 398.716 408.393 398.273 408.999C397.585 409.955 397.083 410.83 396.675 411.541C396.605 411.669 396.512 411.82 396.43 411.96C395.532 411.925 394.214 411.774 392.803 411.529C390.879 411.191 390.424 411.109 390.855 407.309C391.147 404.733 391.52 401.527 390.132 398.95C388.791 396.526 387.007 394.928 384.686 394.077C382.995 393.448 381.362 393.168 379.426 393.168C378.738 393.168 378.003 393.203 377.187 393.273C375.041 393.46 373.361 394.136 371.588 394.835C370.62 395.22 369.617 395.628 368.381 396.013C365.116 397.038 363.203 397.458 361.792 397.458C360.497 397.458 359.459 397.108 357.22 396.316C353.08 394.847 352.625 393.821 352.648 390.359C352.671 384.413 352.042 381.918 345.522 381.277C345.184 381.242 344.846 381.231 344.507 381.231C344.414 381.231 344.321 381.231 344.216 381.231C346.478 378.817 346.513 374.213 346.292 366.973C346.234 365.038 346.175 363.033 346.292 362.065C346.653 358.731 345.406 354.686 344.029 350.792C344.263 350.641 344.496 350.454 344.717 350.233C345.161 349.79 345.51 349.277 345.895 348.74C346.245 348.251 347.05 347.097 347.47 346.934C347.75 346.852 348.659 346.689 349.452 346.561C353.091 345.931 359.856 344.777 365.022 341.384C369.711 338.307 373.489 333.049 375.356 330.135C377.303 330.461 378.843 330.613 380.184 330.613C380.511 330.613 380.837 330.613 381.14 330.589C381.292 330.589 381.467 330.578 381.63 330.578C382.866 330.578 384.324 330.823 385.537 331.242C386.762 331.662 387.881 332.303 388.721 332.839C389.258 334.087 390.039 337.596 390.575 339.974C392.162 347.038 392.885 349.615 394.751 350.862C395.252 351.2 396.209 351.946 397.212 352.739C400.431 355.28 402.845 357.122 404.722 357.81C405.469 358.09 406.297 358.265 407.195 358.335C407.895 359.99 409.014 361.82 410.309 363.418C411.755 365.19 413.388 367.195 416.304 367.323C416.455 367.323 416.63 367.335 416.817 367.335C418.1 367.37 418.951 367.381 419.919 368.757C421.529 371.018 423.161 376.521 423.884 380.543C424.491 383.993 426.042 388.505 428.55 390.79L429.494 391.653H429.564C429.658 391.723 429.739 391.804 429.821 391.874C430.031 392.049 430.264 392.247 430.451 392.41C430.392 393.121 430.241 394.229 429.949 395.068C429.797 395.5 429.576 395.943 429.296 396.514C428.841 397.423 428.281 398.542 427.686 400.221C426.707 402.984 426.439 405.071 426.24 406.598C426.159 407.262 426.077 407.845 425.972 408.265C425.704 409.314 424.992 410.27 424.421 411.028L424.269 411.238C424.118 411.436 423.091 412.543 418.205 413.767C417.89 413.849 417.552 413.884 417.19 413.884L417.213 413.896Z" fill="#CF9B4A"/>
<path d="M215.12 492.563L213.196 485.964L212.764 485.44C210.91 483.201 210.304 481.709 209.954 480.182C209.662 478.876 209.569 477.209 209.429 474.68C209.382 473.712 209.324 472.651 209.242 471.45C209.091 469.096 208.869 464.374 208.578 458.405C208.239 451.154 207.808 442.131 207.33 433.656C207.05 428.806 206.886 424.738 206.746 421.147C206.443 413.651 206.268 409.14 205.359 406.027C203.726 400.443 199.959 399.604 197.848 399.604C196.833 399.604 195.772 399.779 194.617 400.152C190.139 401.574 189.252 404.955 186.628 414.992C186.103 416.997 185.497 419.317 184.762 422.022C183.351 427.209 181.741 431.628 181.217 432.77C181.042 432.852 180.657 432.98 180.027 432.98C178.989 432.98 177.928 432.63 177.088 432.024C176.726 431.756 176.622 431.663 176.598 431.628C176.272 430.672 177.1 425.321 178.254 417.907C179.619 409.082 181.123 399.907 181.543 397.867C181.753 396.853 181.8 395.908 181.683 395.022C186.068 391.642 191.865 387.072 192.926 385.731C193.707 384.752 195.282 383.318 198.326 382.059C198.944 381.803 199.562 381.523 200.122 381.196C203.131 383.143 208.403 386.419 211.598 387.538C212.706 387.923 214.106 388.681 215.599 389.473C218.957 391.269 223.133 393.507 227.576 393.507C227.74 393.507 227.914 393.507 228.078 393.507C231.402 393.379 234.574 391.91 237.373 390.616C239.426 389.66 241.548 388.681 242.866 388.681C242.994 388.681 243.099 388.681 243.193 388.704C245.945 389.228 250.272 390.383 252.873 391.105C253.328 393.344 254.832 394.253 257.27 394.999C258.004 395.221 258.914 395.395 259.952 395.594C262.6 396.095 267.521 397.016 268.338 399.184C269.072 401.154 269.597 405.596 270.005 409.163C270.869 416.589 271.23 419.655 273.982 420.693C275.405 421.229 277.785 422.698 278.076 424.353C279.172 430.555 279.931 438.972 279.417 441.513C277.983 442.376 276.315 443.728 274.472 445.29C274.566 444.171 274.624 442.936 274.612 441.572C274.612 441.105 274.612 440.744 274.624 440.476C274.857 439.998 274.997 439.45 274.985 438.879C274.985 437.247 273.936 435.906 272.478 435.521C270.495 433.913 267.836 433.446 264.594 432.887L263.194 432.642C261.795 432.385 260.757 432.28 259.824 432.28C255.614 432.28 253.887 434.74 251.881 437.573C248.919 441.793 247.123 444.335 247.881 449.277C248.266 451.784 249.782 454.955 250.995 457.181C251.8 458.65 252.989 460.073 254.261 461.588C255.555 463.127 256.885 464.712 258.016 466.554C259.124 468.373 259.707 474.948 260.127 479.751C260.745 486.71 260.43 489.45 260.244 490.383C259.859 490.488 259.182 490.592 258.156 490.592C255.684 490.592 253.596 489.986 252.966 489.602C252.686 489.217 252.371 488.96 252.161 488.797C252.126 488.564 252.103 488.016 252.29 486.99L252.395 486.396C252.908 483.609 253.176 481.663 252.348 480.042C251.38 478.165 249.386 476.65 247.03 475.985C244.172 475.204 241.362 474.785 238.866 474.785C235.332 474.785 232.486 475.589 230.41 477.174C226.608 480.1 224.766 484.822 224.766 491.607V493.029C224.766 494.964 224.789 497.132 224.521 497.762L224.276 497.89C222.596 498.788 220.52 499.907 219.482 500.024L215.074 492.574L215.12 492.563Z" fill="#CD935E"/>
<path d="M227.565 386.85C224.789 386.85 221.57 385.125 218.724 383.609C216.998 382.688 215.377 381.814 213.779 381.255C211.178 380.345 205.837 376.999 202.886 375.064C202.863 374.959 202.781 374.691 202.77 374.645C203.446 373.619 205.522 371.625 206.805 370.39C207.913 369.329 209.056 368.221 209.989 367.207C212.496 364.444 213.733 357.904 215.027 347.529C215.202 346.118 215.354 344.894 215.459 344.3C216.007 341.292 217.581 329.984 217.255 325.682C217.138 324.19 217.826 319.48 218.433 315.318C219.179 310.212 220.019 304.442 220.182 300.117C220.45 292.644 221.185 290.371 222.071 288.564C223.308 287.398 228.883 285.02 231.588 283.866C233.314 283.131 234.819 282.49 235.857 281.966C239.297 280.252 249.794 276.253 252.383 275.589L253.993 276.976L254.599 277.186C259.147 278.736 271.837 283.283 275.93 285.556C277.82 286.605 280.129 287.165 282.613 287.165C282.695 287.165 282.776 287.165 282.846 287.165C281.33 291.082 277.621 303.871 277.843 310.329C277.995 314.794 279.802 320.203 281.26 324.551C281.878 326.393 282.52 328.293 282.613 329.016C282.905 331.068 281.785 340.231 281.015 343.355L280.864 343.833C279.814 347.226 278.414 350.28 277.668 351.236C277.131 351.341 276.222 351.492 275.51 351.609C269.644 352.553 266.005 353.346 265.014 356.33C264.734 357.17 264.606 358.091 264.454 359.163C264.151 361.308 263.766 363.978 262.156 366.927C260.827 369.387 260.15 372.08 259.556 374.458C259.241 375.717 258.774 377.547 258.389 378.235C255.625 379.203 253.969 381.698 253.188 384.286C250.517 383.563 246.948 382.642 244.441 382.164C243.928 382.071 243.414 382.024 242.878 382.024C240.09 382.024 237.303 383.318 234.597 384.565C232.253 385.65 229.816 386.78 227.821 386.85H227.576H227.565Z" fill="#FFD257"/>
<path d="M279.067 473.222C278.892 473.059 278.694 472.907 278.496 472.767C277.971 472.383 277.085 471.753 276.793 470.622C276.49 469.491 276.443 467.556 276.408 466.006C276.361 464.292 276.326 462.823 276.012 461.681C275.767 460.806 275.615 460.317 275.533 460.014L275.475 459.816C275.428 459.431 275.37 458.918 275.183 457.799C275.055 457.006 274.915 456.225 274.775 455.467C274.659 454.814 274.542 454.173 274.437 453.567C274.694 453.45 274.95 453.322 275.207 453.171C275.778 452.833 276.466 452.238 277.854 451.061C279.394 449.743 281.983 447.528 283.219 446.91C284.747 446.153 288.327 444.369 284.584 423.187C283.779 418.605 279.709 416.064 277.516 415.015C277.189 413.593 276.84 410.643 276.583 408.393C276.082 404.057 275.557 399.58 274.542 396.852C272.419 391.21 265.41 389.892 261.223 389.1C260.488 388.96 259.73 388.82 259.322 388.703C259.322 388.552 259.299 388.4 259.287 388.225C259.147 386.71 259.975 384.67 260.617 384.495C264.116 383.492 265.06 379.739 265.97 376.101C266.495 374.003 267.043 371.835 267.976 370.121C270.145 366.111 270.658 362.52 271.008 360.142C271.055 359.851 271.09 359.536 271.137 359.256C272.466 358.813 275.16 358.382 276.56 358.148C277.434 358.009 278.123 357.892 278.694 357.787L291.756 364.082C290.788 365.26 290.217 366.705 290.217 368.944C290.217 370.203 289.692 371.916 289.226 373.432C288.841 374.691 288.502 375.787 288.386 376.813C288.362 376.999 288.339 377.209 288.304 377.419C287.418 383.679 290.403 385.439 293.063 385.824C293.984 385.952 294.287 386.034 294.392 386.069C294.497 386.15 294.952 386.663 295.36 387.106C295.582 387.351 295.838 387.631 296.118 387.946C295.652 388.272 295.104 388.645 294.59 388.995L293.517 389.718C288.572 393.087 287.919 394.171 286.741 398.204L286.648 398.531C286.45 399.195 286.135 399.813 285.797 400.454C284.712 402.529 283.079 405.665 286.555 410.305C287.278 411.273 288.001 412.217 288.701 413.126C290.823 415.889 292.818 418.501 293.611 420.226C294.182 421.473 294.812 423.024 295.29 424.259C294.252 425.425 293.576 426.731 293.261 427.454C292.06 430.112 292.106 433.644 293.366 436.652C293.961 438.051 294.264 439.415 294.579 440.848L294.625 441.047L294.544 444.742L288.969 447.61L283.324 452.693L284.759 462.508L285.902 469.223C285.26 469.678 284.49 470.074 283.662 470.517C282.893 470.925 282.088 471.345 281.283 471.87L280.863 472.138C280.362 472.464 279.674 472.896 279.067 473.269V473.222Z" fill="#E5B570"/>
<path d="M408.233 351.796C407.556 351.796 407.171 351.691 407.008 351.633C405.982 351.259 402.833 348.765 401.317 347.576C400.395 346.853 399.579 346.2 398.914 345.722C398.378 344.498 397.585 340.954 397.036 338.553C395.45 331.488 394.727 328.912 392.861 327.664C392.15 327.186 391.205 326.592 390.085 326.032C390.307 323.514 390.587 320.996 390.82 319.76C391.998 318.338 392.348 315.773 392.745 312.789C392.85 312.043 392.943 311.343 393.036 310.772C393.083 310.492 394.074 309.7 396.255 309.362C399.334 308.884 401.13 306.389 402.716 304.186C403.463 303.16 404.232 302.087 405.095 301.225C405.632 300.688 408.093 299.896 412.676 299.896C412.746 299.896 412.816 299.896 412.886 299.896C413.329 300.595 413.878 301.376 414.496 302.087C415.639 303.393 417.353 304.92 419.161 306.529C421.155 308.301 424.852 311.588 425.307 312.812C425.564 314.13 426.112 315.633 426.695 317.231C427.5 319.446 428.409 321.94 428.526 324.12V324.19C428.619 326.125 428.993 328.119 429.412 329.833C421.552 330.509 415.464 332.619 414.601 341.245C414.309 344.078 412.443 348.485 411.44 349.231C410.25 350.105 409.166 350.91 408.314 351.796C408.279 351.796 408.244 351.796 408.209 351.796H408.233Z" fill="#FFD257"/>
<path d="M380.743 484.297C376.638 484.297 368.754 481.628 362.234 476.673C361.313 475.974 360.357 475.239 359.412 474.517C355.155 471.241 352.461 469.201 350.898 468.396C350.198 468.035 348.834 466.24 348.472 464.608C346.98 457.823 340.18 453.603 321.111 443.286C319.269 442.283 317.496 441.362 315.875 440.523C312.773 438.914 309.845 437.387 308.749 436.443C308.679 436.384 308.621 436.326 308.574 436.291C308.574 436.221 308.597 436.151 308.609 436.069C308.667 435.661 308.749 435.102 308.749 434.437C308.749 431.465 308.026 428.445 306.696 426.102C307.583 426.172 308.667 426.195 309.915 426.195C316.913 426.195 328.937 425.612 330.885 421.719C331.293 420.903 331.748 419.737 332.273 418.385C332.961 416.624 334.232 413.337 334.944 412.544C335.398 412.031 335.842 411.472 336.261 410.912C336.705 411.262 337.183 411.612 337.684 411.985C339.399 413.255 341.521 414.841 344.216 417.37C350.583 423.339 359.879 433.237 363.926 438.098C364.882 439.24 365.733 440.185 366.468 441.001C368.078 442.773 368.801 443.612 369.186 444.685C369.827 446.457 369.815 449.406 369.815 451.784V452.355C369.815 459.816 372.661 463.745 380.009 470.565H379.997L382.574 472.92C383.659 473.887 384.545 474.552 385.199 475.041C385.28 475.1 385.373 475.17 385.467 475.239C385.35 475.636 385.152 476.207 384.895 476.93C383.461 480.928 382.306 483.295 381.711 484.228C381.466 484.263 381.152 484.286 380.755 484.286L380.743 484.297Z" fill="#FFE1A6"/>
<path d="M383.589 324.097C382.924 324.027 382.271 323.98 381.642 323.98C381.315 323.98 381.012 323.98 380.708 324.004C380.534 324.004 380.359 324.015 380.172 324.015C378.388 324.015 376.008 323.572 374.364 323.234C373.991 323.153 373.618 323.094 373.244 323.024C372.381 322.873 371.577 322.733 371.215 322.488C369.745 321.509 369.384 319.923 369.512 319.48C372.929 315.936 370.084 307.834 368.066 303.299C365.932 298.531 358.374 297.995 353.359 297.634C352.683 297.587 351.983 297.541 351.563 297.494C351.178 297.144 350.502 296.095 350.035 295.384C349.067 293.88 347.971 292.19 346.362 290.802C343.924 288.716 340.157 288.319 336.821 287.981C335.62 287.853 333.836 287.666 333.218 287.433C332.961 287.188 332.565 286.687 331.97 285.766C333.136 286.058 334.337 286.233 335.55 286.233C336.227 286.233 336.891 286.174 337.521 286.069C344.192 284.962 345.778 283.761 352.485 278.678L353.616 277.816C358.701 273.969 363.343 272.255 365.687 272.255C366.048 272.255 366.27 272.302 366.375 272.325L366.433 272.406C368.673 275.542 372.066 280.275 378.283 280.555C378.528 280.555 378.772 280.567 379.017 280.567C381.898 280.567 384.93 279.867 387.59 279.25C389.211 278.876 390.89 278.48 391.695 278.48C394.004 278.655 402.39 280.52 404.641 281.08C405.294 281.243 406.052 281.336 406.938 281.348C407.078 283.505 407.393 285.661 408.093 287.631C408.606 289.054 409.014 290.371 409.411 291.583C409.609 292.19 409.796 292.772 409.982 293.344C405.457 293.635 402.238 294.708 400.407 296.538C399.171 297.785 398.203 299.126 397.351 300.303C396.675 301.236 395.66 302.647 395.194 302.833C390.342 303.591 387.076 306.156 386.493 309.676C386.4 310.282 386.295 311.017 386.19 311.798C386.062 312.754 385.852 314.351 385.642 315.284C384.464 316.578 383.974 319.294 383.566 324.108L383.589 324.097Z" fill="#EAA66D"/>
<path d="M544.501 289.601C543.545 288.972 542.308 288.284 540.909 287.759C540.454 286.827 540.022 284.413 539.742 282.91C539.346 280.73 538.973 278.666 538.261 277.092C536.209 272.569 527.473 267.801 525.082 267.125C524.616 266.985 524.103 266.927 523.566 266.927C520.114 266.927 515.041 270.028 513.431 272.033C513.058 272.499 512.603 273.164 512.02 273.991C511.518 274.714 510.527 276.148 509.594 277.326C509.559 277.221 509.524 277.116 509.478 277.011C508.953 275.612 507.903 272.278 507.052 269.608C506.527 267.953 506.049 266.437 505.722 265.47C504.754 262.555 502.188 258.137 499.751 256.109C498.876 255.386 497.721 255.024 496.205 255.024C494.059 255.024 491.004 255.712 487.761 256.447C485.172 257.029 482.233 257.694 480.845 257.694C480.787 257.694 480.729 257.694 480.682 257.694C478.816 257.554 476.483 255.957 475.154 254.616C475.364 254.453 475.562 254.29 475.749 254.15C476.927 253.229 478.268 252.192 479.154 250.781C481.184 247.54 483.738 234.798 483.738 229.506C483.738 225.647 482.408 223.56 481.429 222.045C480.787 221.042 480.367 220.389 480.204 219.154C479.726 215.598 476.798 211.494 473.311 206.878C472.448 205.735 471.364 204.313 471.13 203.835C469.917 201.41 467.2 200.35 463.771 199.009C461.59 198.158 459.118 197.19 456.75 195.78C456.26 195.477 455.642 194.975 455.106 194.532L454.569 194.101C452.715 192.644 451.467 191.175 450.266 189.764C449.076 188.365 447.945 187.036 446.452 185.999C445.297 185.195 444.761 183.329 444.201 181.359C443.921 180.403 443.641 179.412 443.256 178.456C441.763 174.726 437.168 174.411 432.293 174.073C430.019 173.922 427.675 173.758 425.867 173.28C424.736 172.977 424.549 171.508 425.109 166.997C425.272 165.714 425.412 164.502 425.412 163.36C425.412 160.853 427.348 156.4 430.719 151.154C434.136 145.838 434.707 134.961 434.451 130.52C434.101 124.574 429.086 121.543 424.234 118.606C423.453 118.128 422.648 117.65 421.832 117.137C418.788 115.213 415.032 112.322 412.49 110.282C412.98 109.326 413.271 108.254 413.633 106.948L413.843 106.19C415.312 100.932 416.665 96.9106 417.47 95.43C417.936 94.5674 418.578 93.9728 419.394 93.2151C420.35 92.3291 421.54 91.2333 422.508 89.5662C423.639 87.6427 424.771 85.9756 425.879 84.3669C428.759 80.1584 431.477 76.1831 431.92 69.8996C432.142 66.822 433.949 59.5476 435.349 56.8313C436.165 55.2692 436.713 54.7329 437.413 54.0568C437.926 53.5671 438.568 52.9493 439.221 52.0167C441.892 48.2396 442.895 46.829 442.766 44.0078C442.65 41.2682 440.166 39.2398 437.297 36.8849C436.772 36.4536 436.259 36.0339 435.792 35.6259C435.535 35.4044 435.302 35.1596 435.104 34.9148C437.343 33.7723 445.682 31.977 453.939 31.977C455.735 31.977 457.077 31.8371 458.056 31.7439C458.593 31.6856 459.071 31.639 459.386 31.639C459.631 31.639 459.934 31.639 461.415 33.2127C461.87 33.7024 462.36 34.3319 462.931 35.0547C464.133 36.5935 465.614 38.517 467.783 40.2657C469.812 41.8978 471.422 42.6089 473.451 43.5065C473.918 43.7164 474.419 43.9379 474.979 44.1827C482.187 47.4818 487.691 48.9623 492.823 48.9623H493.103C500.847 48.9623 505.104 48.4727 510.749 43.9845C513.338 41.9211 515.344 40.6271 516.09 40.2424C520.476 39.6478 523.939 33.341 523.939 29.1442C523.939 28.538 524.348 25.7285 524.767 24.3762C524.872 24.0381 524.977 23.6301 525.071 23.2221C525.129 22.9656 525.222 22.5926 525.292 22.406C525.339 22.3594 525.397 22.3128 525.444 22.2661C525.794 21.9281 526.342 21.4268 526.75 20.6457C527.1 19.9696 527.392 19.4683 527.613 19.0603C528.686 17.1484 529.059 16.1925 528.639 13.7327C528.08 10.4918 525.689 8.73152 523.158 6.86628L522.831 6.63313C522.213 6.17847 521.618 5.77045 521.07 5.38575C520.429 4.94275 519.578 4.35987 519.193 3.98682C519.274 3.68372 519.414 3.2757 519.508 2.99591C519.636 2.61121 519.741 2.27313 519.846 1.9234C519.974 1.46875 520.207 0.710999 520.359 0.489503C520.476 0.326294 520.732 -0.0234375 521.747 -0.0234375C522.412 -0.0234375 523.216 0.128113 524.149 0.419556C524.523 0.536133 524.977 0.676026 525.491 0.827577C527.193 1.34052 530.039 2.19153 531.31 3.01923C532.64 3.8819 532.663 3.90522 533.293 4.52308C533.526 4.75623 533.818 5.03602 534.226 5.42072C534.692 5.85206 535.252 6.57484 535.847 7.33259C536.698 8.41676 537.655 9.65248 538.833 10.7017C540.944 12.5669 543.416 13.3946 544.466 13.7327L544.664 13.8026C545.201 13.9892 545.807 14.0708 546.635 14.0708C548.641 14.0708 552.187 13.5811 554.811 13.1731C557.703 12.7185 561.062 11.8674 564.619 10.9698C567.092 10.3403 569.646 9.69911 572.293 9.11622C575.955 8.31184 577.32 7.99708 577.891 7.85719L578.078 7.81056C578.37 7.77558 578.964 7.70564 580.865 7.37922C581.344 7.29762 581.577 7.28596 581.67 7.28596C581.74 7.28596 581.799 7.28596 581.845 7.28596C582.055 7.30927 582.253 7.32093 582.475 7.32093C583.478 7.32093 584.516 7.07612 586.93 6.24842C591.607 4.63965 601.275 2.45966 602.99 2.31977C603.818 2.37805 604.658 2.38971 605.474 2.40137C607.41 2.42469 609.603 2.45966 610.606 3.22907L610.804 3.39228C611.305 3.77698 611.912 4.24329 612.133 4.4881C612.227 6.78468 613.323 9.09291 614.128 10.7833C614.244 11.0281 614.349 11.2496 614.443 11.4594C615.236 13.1964 616.589 15.3997 618.49 17.9994C619.726 19.7014 621.592 21.147 623.388 22.5459C624.298 23.257 625.161 23.9215 625.744 24.4811L626.782 25.4837C628.31 26.9525 630.187 28.7478 630.747 29.6338C630.654 29.867 630.514 30.1817 630.397 30.4382C629.989 31.3359 629.429 32.5716 629.196 34.0871L629.173 34.227C628.881 35.9989 628.753 36.815 629.009 38.7735C629.079 39.3214 629.301 41.0118 633.021 48.1929C633.476 49.0673 633.488 49.3704 633.488 49.382C633.465 49.5219 633.196 50.0348 632.998 50.4196C632.532 51.3522 631.879 52.6229 631.319 54.4998L631.284 54.628C629.756 59.7224 629.604 61.7858 633.605 66.6821C633.908 67.0551 634.234 67.4632 634.573 67.8945C636.124 69.853 638.048 72.2895 640.684 74.4928C642.282 75.8217 643.576 76.323 644.941 76.8593C645.232 76.9759 645.547 77.0924 645.897 77.2323C647.612 77.9318 650.201 79.1675 651.624 80.0535L656.965 83.3993L656.604 85.4044L656.16 91.0351C656.067 92.0376 655.985 93.0635 656.289 94.0078L656.044 94.8355L656.942 95.43C656.662 95.4417 656.347 95.465 655.997 95.4767H655.857C654.714 95.4767 652.288 95.1502 650.341 94.8821C648.323 94.614 647.052 94.4391 646.235 94.4275C644.952 94.4042 643.996 94.2409 643.145 93.8796C641.08 92.9936 638.865 90.9884 636.38 87.7359C634.888 85.7774 632.847 83.5158 630.292 83.5158C629.173 83.5158 628.135 83.9588 627.353 84.7399C626.677 85.2528 626.152 86.0339 625.359 87.3046C624.881 88.074 624.554 88.89 624.239 89.6711C623.983 90.3006 623.563 91.3731 623.271 91.5946C622.56 91.9793 620.612 92.1542 619.049 92.2825C618.198 92.3524 617.335 92.434 616.495 92.5389C615.469 92.6788 614.583 92.7138 613.813 92.7488C611.41 92.8537 608.133 93.0052 606.57 97.3302C605.439 100.489 604.961 106.412 604.739 119.981C604.658 125.052 604.844 127.967 604.972 129.89C605.042 131.009 605.101 131.814 605.066 132.525C605.042 132.956 605.066 133.423 605.066 133.901C605.066 134.017 605.066 134.145 605.066 134.285C604.261 134.938 603.06 135.847 602.512 136.209C599.316 138.319 597.672 140.522 597.473 142.935C597.38 144.031 597.567 146.095 600.016 147.249C600.634 147.54 601.24 147.622 601.882 147.715C602.138 147.75 602.617 147.82 602.92 147.89C602.943 147.983 603.036 148.403 603.036 148.403C603.27 149.382 603.293 152.052 603.165 152.728C603.048 153.299 602.791 153.684 601.707 155.094C600.995 156.015 600.039 157.274 598.873 159.046C598.395 159.781 597.94 160.562 597.485 161.343C596.739 162.625 595.817 164.234 595.164 164.654C594.919 164.805 594.091 165.143 593.543 165.353C592.948 165.586 592.33 165.831 591.77 166.099C591.7 166.099 591.222 166.099 591.21 166.099C590.429 166.099 589.344 166.099 588.108 166.332C581.6 167.521 577.915 171.334 575.711 174.108C572.083 178.655 572.06 183.912 575.641 187.491C576.993 188.82 578.883 189.473 580.236 189.788C581.215 190.009 581.962 190.102 582.697 190.102C583.233 190.102 583.769 190.056 584.376 189.939C586.44 189.59 587.863 187.876 589.239 186.22C589.379 186.057 589.543 185.847 589.729 185.638C590.044 186.325 590.464 186.768 590.697 187.013L590.802 187.118C590.802 187.118 590.93 187.363 591.047 188.074C591.42 190.277 591.479 195.232 591.164 198.473L590.102 209.536C588.365 212.229 586.23 214.595 583.42 216.95C580.854 219.095 580.142 219.853 579.583 221.811C579.524 222.021 579.454 222.266 579.326 222.604C578.3 225.274 578.3 228.118 578.3 232.42C578.3 233.667 578.44 235.02 578.568 236.337C578.615 236.803 578.673 237.316 578.708 237.806C578.416 237.619 578.125 237.41 577.833 237.188C574.847 234.938 572.363 233.842 570.217 233.842C569.972 233.842 569.739 233.854 569.506 233.889C567.57 234.122 566.159 235.218 565.506 236.978C565.261 237.643 565.202 238.342 565.086 239.869C565.039 240.522 564.934 241.758 564.852 242.108C564.771 242.352 564.223 242.947 563.651 243.576C562.893 244.404 561.948 245.43 560.969 246.876C557.68 251.714 556.525 254.348 556.712 256.621C556.922 258.988 558.601 259.909 559.161 260.212L559.289 260.282C560.234 260.923 561.225 260.993 561.89 260.993C562.263 260.993 562.707 260.958 563.173 260.923C563.453 260.9 563.733 260.877 564.013 260.877C564.491 261.728 564.852 264.082 565.062 265.411C565.179 266.146 565.296 266.869 565.424 267.556C566.007 270.634 565.447 271.345 565.436 271.357C565.436 271.357 565.074 271.765 563.115 271.765H562.485C560.782 271.765 558.671 271.765 556.385 273.479C554.916 274.574 554.449 275.612 553.959 276.708C553.586 277.524 553.085 278.643 551.813 280.695C551.347 281.452 550.892 282.233 550.449 283.015C549.131 285.334 547.871 287.514 546.04 288.89C545.725 289.123 545.142 289.31 544.478 289.485L544.501 289.601Z" fill="#FFD257"/>
</g>
<defs>
<clipPath id="clip0_373_26">
<rect width="657" height="500" fill="white"/>
</clipPath>
</defs>
</svg>
